<?xml version="1.0" encoding="utf-8"?>
<svg version="1.1" xmlns:xlink="http://www.w3.org/1999/xlink" width="276px" height="28px" xmlns="http://www.w3.org/2000/svg">
  <defs>
    <mask fill="white" id="clip12">
      <path d="M 0 24  L 0 4  C 0 1.76000000000001  1.76000000000001 0  4 0  L 131.666666666667 0  L 173.888888888889 0  L 272 0  C 274.24 0  276 1.76000000000001  276 4  L 276 24  C 276 26.24  274.24 28  272 28  L 4 28  C 1.76000000000001 28  0 26.24  0 24  Z " fill-rule="evenodd" />
    </mask>
  </defs>
  <g transform="matrix(1 0 0 1 -115 -86 )">
    <path d="M 0 24  L 0 4  C 0 1.76000000000001  1.76000000000001 0  4 0  L 131.666666666667 0  L 173.888888888889 0  L 272 0  C 274.24 0  276 1.76000000000001  276 4  L 276 24  C 276 26.24  274.24 28  272 28  L 4 28  C 1.76000000000001 28  0 26.24  0 24  Z " fill-rule="nonzero" fill="#ffffff" stroke="none" transform="matrix(1 0 0 1 115 86 )" />
    <path d="M 0 24  L 0 4  C 0 1.76000000000001  1.76000000000001 0  4 0  L 131.666666666667 0  L 173.888888888889 0  L 272 0  C 274.24 0  276 1.76000000000001  276 4  L 276 24  C 276 26.24  274.24 28  272 28  L 4 28  C 1.76000000000001 28  0 26.24  0 24  Z " stroke-width="2" stroke="#d8d8d8" fill="none" transform="matrix(1 0 0 1 115 86 )" mask="url(#clip12)" />
  </g>
</svg>