<?xml version="1.0" encoding="utf-8"?>
<svg version="1.1" xmlns:xlink="http://www.w3.org/1999/xlink" width="104px" height="104px" xmlns="http://www.w3.org/2000/svg">
  <g transform="matrix(1 0 0 1 -838 -379 )">
    <path d="M 839 383  A 3 3 0 0 1 842 380 L 938 380  A 3 3 0 0 1 941 383 L 941 479  A 3 3 0 0 1 938 482 L 842 482  A 3 3 0 0 1 839 479 L 839 383  Z " fill-rule="nonzero" fill="#000000" stroke="none" fill-opacity="0.0196078431372549" />
    <path d="M 838.5 383  A 3.5 3.5 0 0 1 842 379.5 L 938 379.5  A 3.5 3.5 0 0 1 941.5 383 L 941.5 479  A 3.5 3.5 0 0 1 938 482.5 L 842 482.5  A 3.5 3.5 0 0 1 838.5 479 L 838.5 383  Z " stroke-width="1" stroke-dasharray="9,4" stroke="#d9d9d9" fill="none" stroke-dashoffset="0.5" />
  </g>
</svg>