<?xml version="1.0" encoding="utf-8"?>
<svg version="1.1" xmlns:xlink="http://www.w3.org/1999/xlink" width="438px" height="192px" xmlns="http://www.w3.org/2000/svg">
  <g transform="matrix(1 0 0 1 -64 -178 )">
    <path d="M 65 184  A 5 5 0 0 1 70 179 L 496 179  A 5 5 0 0 1 501 184 L 501 364  A 5 5 0 0 1 496 369 L 70 369  A 5 5 0 0 1 65 364 L 65 184  Z " fill-rule="nonzero" fill="#000000" stroke="none" fill-opacity="0.0196078431372549" />
    <path d="M 64.5 184  A 5.5 5.5 0 0 1 70 178.5 L 496 178.5  A 5.5 5.5 0 0 1 501.5 184 L 501.5 364  A 5.5 5.5 0 0 1 496 369.5 L 70 369.5  A 5.5 5.5 0 0 1 64.5 364 L 64.5 184  Z " stroke-width="1" stroke-dasharray="9,4" stroke="#108ee9" fill="none" stroke-dashoffset="0.5" />
  </g>
</svg>