<?xml version="1.0" encoding="utf-8"?>
<svg version="1.1" xmlns:xlink="http://www.w3.org/1999/xlink" width="14px" height="14px" xmlns="http://www.w3.org/2000/svg">
  <g transform="matrix(1 0 0 1 -269 -777 )">
    <path d="M 276 777  C 279.92 777  283 780.08  283 784  C 283 787.92  279.92 791  276 791  C 272.08 791  269 787.92  269 784  C 269 780.08  272.08 777  276 777  Z " fill-rule="nonzero" fill="#ffffff" stroke="none" fill-opacity="0" />
    <path d="M 276 777.5  C 279.64 777.5  282.5 780.36  282.5 784  C 282.5 787.64  279.64 790.5  276 790.5  C 272.36 790.5  269.5 787.64  269.5 784  C 269.5 780.36  272.36 777.5  276 777.5  Z " stroke-width="1" stroke="#d9d9d9" fill="none" />
  </g>
</svg>