<?xml version="1.0" encoding="utf-8"?>
<svg version="1.1" xmlns:xlink="http://www.w3.org/1999/xlink" width="123px" height="28px" xmlns="http://www.w3.org/2000/svg">
  <defs>
    <mask fill="white" id="clip13">
      <path d="M 0 24  L 0 4  C 0 1.76000000000001  1.76000000000001 0  4 0  L 26.2380952380952 0  L 119 0  C 121.24 0  123 1.76000000000001  123 4  L 123 24  C 123 26.24  121.24 28  119 28  L 4 28  C 1.76000000000001 28  0 26.24  0 24  Z " fill-rule="evenodd" />
    </mask>
  </defs>
  <g transform="matrix(1 0 0 1 -119 -86 )">
    <path d="M 0 24  L 0 4  C 0 1.76000000000001  1.76000000000001 0  4 0  L 26.2380952380952 0  L 119 0  C 121.24 0  123 1.76000000000001  123 4  L 123 24  C 123 26.24  121.24 28  119 28  L 4 28  C 1.76000000000001 28  0 26.24  0 24  Z " fill-rule="nonzero" fill="#ffffff" stroke="none" transform="matrix(1 0 0 1 119 86 )" />
    <path d="M 0 24  L 0 4  C 0 1.76000000000001  1.76000000000001 0  4 0  L 26.2380952380952 0  L 119 0  C 121.24 0  123 1.76000000000001  123 4  L 123 24  C 123 26.24  121.24 28  119 28  L 4 28  C 1.76000000000001 28  0 26.24  0 24  Z " stroke-width="2" stroke="#d9d9d9" fill="none" transform="matrix(1 0 0 1 119 86 )" mask="url(#clip13)" />
  </g>
</svg>